<mxfile host="app.diagrams.net" modified="2024-01-03T21:12:51.422Z" agent="Mozilla/5.0 (Windows NT 10.0; Win64; x64) AppleWebKit/537.36 (KHTML, like Gecko) Chrome/120.0.0.0 Safari/537.36 Edg/120.0.0.0" etag="1P-sQ33qIhuRGw4F6TXq" version="22.1.16" type="github">
  <diagram name="Page-1" id="8378b5f6-a2b2-b727-a746-972ab9d02e00">
    <mxGraphModel dx="1441" dy="614" grid="1" gridSize="10" guides="1" tooltips="1" connect="0" arrows="1" fold="1" page="1" pageScale="1.5" pageWidth="1169" pageHeight="827" background="none" math="0" shadow="0">
      <root>
        <mxCell id="0" />
        <mxCell id="1" parent="0" />
        <mxCell id="68" value="" style="strokeColor=#99CCFF;" parent="1" vertex="1">
          <mxGeometry x="686.500000000002" y="380.0000000000002" width="20" height="520" as="geometry" />
        </mxCell>
        <mxCell id="69" value="" style="strokeColor=#6c8ebf;fillColor=#dae8fc;" parent="1" vertex="1">
          <mxGeometry x="500.0000000000002" y="399.9999999999999" width="40" height="20" as="geometry" />
        </mxCell>
        <mxCell id="70" value="YMS" style="align=center;strokeColor=#6c8ebf;fillColor=#dae8fc;" parent="1" vertex="1">
          <mxGeometry x="540" y="400" width="147.5" height="20" as="geometry" />
        </mxCell>
        <mxCell id="74" value="" style="strokeColor=#DEEDFF" parent="1" vertex="1">
          <mxGeometry x="500.0000000000003" y="419.9999999999998" width="40" height="20" as="geometry" />
        </mxCell>
        <mxCell id="75" value="Evolução" style="align=right;strokeColor=#DEEDFF" parent="1" vertex="1">
          <mxGeometry x="367.5000000000003" y="419.9999999999998" width="319.9999999999997" height="20.000000000000014" as="geometry" />
        </mxCell>
        <mxCell id="79" value="" style="strokeColor=#DEEDFF" parent="1" vertex="1">
          <mxGeometry x="500" y="440.00000000000017" width="40" height="20" as="geometry" />
        </mxCell>
        <mxCell id="80" value="Sustentação" style="align=right;strokeColor=#DEEDFF" parent="1" vertex="1">
          <mxGeometry x="367.5" y="440.00000000000017" width="320" height="20" as="geometry" />
        </mxCell>
        <mxCell id="84" value="" style="strokeColor=#6c8ebf;fillColor=#dae8fc;" parent="1" vertex="1">
          <mxGeometry x="499.9999999999999" y="460.00000000000017" width="40" height="20" as="geometry" />
        </mxCell>
        <mxCell id="85" value="TSM" style="align=center;strokeColor=#6c8ebf;fillColor=#dae8fc;" parent="1" vertex="1">
          <mxGeometry x="540" y="460" width="147.5" height="20" as="geometry" />
        </mxCell>
        <mxCell id="89" value="" style="strokeColor=#DEEDFF" parent="1" vertex="1">
          <mxGeometry x="499.9999999999999" y="480.00000000000045" width="40" height="20" as="geometry" />
        </mxCell>
        <mxCell id="90" value="Evolução" style="align=right;strokeColor=#DEEDFF" parent="1" vertex="1">
          <mxGeometry x="367.4999999999999" y="480.00000000000045" width="320.0000000000001" height="20" as="geometry" />
        </mxCell>
        <mxCell id="94" value="" style="strokeColor=#DEEDFF" parent="1" vertex="1">
          <mxGeometry x="500.0000000000006" y="500.0000000000007" width="40" height="20" as="geometry" />
        </mxCell>
        <mxCell id="95" value="Sustentação" style="align=right;strokeColor=#DEEDFF" parent="1" vertex="1">
          <mxGeometry x="367.5000000000006" y="500.0000000000007" width="319.9999999999994" height="20" as="geometry" />
        </mxCell>
        <mxCell id="104" value="" style="strokeColor=#6c8ebf;fillColor=#dae8fc;" parent="1" vertex="1">
          <mxGeometry x="500.00000000000034" y="581.000000000001" width="40" height="20" as="geometry" />
        </mxCell>
        <mxCell id="105" value="B3" style="align=center;strokeColor=#6c8ebf;fillColor=#dae8fc;" parent="1" vertex="1">
          <mxGeometry x="540" y="581" width="147.5" height="20" as="geometry" />
        </mxCell>
        <mxCell id="109" value="" style="strokeColor=#DEEDFF" parent="1" vertex="1">
          <mxGeometry x="500.0000000000003" y="601.000000000001" width="40" height="20" as="geometry" />
        </mxCell>
        <mxCell id="110" value="Evolução" style="align=right;strokeColor=#DEEDFF" parent="1" vertex="1">
          <mxGeometry x="367.5000000000003" y="601.000000000001" width="319.9999999999997" height="20" as="geometry" />
        </mxCell>
        <mxCell id="114" value="" style="strokeColor=#DEEDFF" parent="1" vertex="1">
          <mxGeometry x="500.0000000000003" y="621.0000000000013" width="40" height="20" as="geometry" />
        </mxCell>
        <mxCell id="115" value="Sustentação" style="align=right;strokeColor=#DEEDFF" parent="1" vertex="1">
          <mxGeometry x="367.5000000000003" y="621.0000000000013" width="319.9999999999997" height="20" as="geometry" />
        </mxCell>
        <mxCell id="194" value="" style="strokeColor=#99CCFF;" parent="1" vertex="1">
          <mxGeometry x="706.500000000002" y="380.00000000000387" width="20" height="520" as="geometry" />
        </mxCell>
        <mxCell id="195" value="" style="strokeColor=#99CCFF;" parent="1" vertex="1">
          <mxGeometry x="726.500000000002" y="380.00000000000387" width="20" height="520" as="geometry" />
        </mxCell>
        <mxCell id="196" value="" style="strokeColor=#99CCFF;" parent="1" vertex="1">
          <mxGeometry x="746.500000000002" y="380.00000000000387" width="20" height="520" as="geometry" />
        </mxCell>
        <mxCell id="mjpSlSEr6OjCwsv88gNC-278" value="" style="edgeStyle=orthogonalEdgeStyle;rounded=0;orthogonalLoop=1;jettySize=auto;html=1;" edge="1" parent="1" target="4">
          <mxGeometry relative="1" as="geometry">
            <mxPoint x="776.4827586206898" y="398.00000000000387" as="sourcePoint" />
          </mxGeometry>
        </mxCell>
        <mxCell id="197" value="" style="strokeColor=#99CCFF;" parent="1" vertex="1">
          <mxGeometry x="766.500000000002" y="380.00000000000387" width="20" height="520" as="geometry" />
        </mxCell>
        <mxCell id="198" value="" style="strokeColor=#99CCFF;" parent="1" vertex="1">
          <mxGeometry x="786.500000000002" y="380.0000000000075" width="20" height="520" as="geometry" />
        </mxCell>
        <mxCell id="199" value="" style="strokeColor=#99CCFF;" parent="1" vertex="1">
          <mxGeometry x="806.500000000002" y="380.0000000000075" width="20" height="520" as="geometry" />
        </mxCell>
        <mxCell id="200" value="" style="strokeColor=#99CCFF;" parent="1" vertex="1">
          <mxGeometry x="826.500000000002" y="380.0000000000075" width="20" height="520" as="geometry" />
        </mxCell>
        <mxCell id="201" value="" style="strokeColor=#99CCFF;" parent="1" vertex="1">
          <mxGeometry x="846.5000000000016" y="380.0000000000075" width="20" height="520" as="geometry" />
        </mxCell>
        <mxCell id="202" value="" style="strokeColor=#99CCFF;" parent="1" vertex="1">
          <mxGeometry x="866.5000000000016" y="380.00000000001114" width="20" height="520" as="geometry" />
        </mxCell>
        <mxCell id="203" value="" style="strokeColor=#99CCFF;" parent="1" vertex="1">
          <mxGeometry x="886.5000000000016" y="380.00000000001114" width="20" height="520" as="geometry" />
        </mxCell>
        <mxCell id="204" value="" style="strokeColor=#99CCFF;" parent="1" vertex="1">
          <mxGeometry x="906.5000000000016" y="380.00000000001114" width="20" height="520" as="geometry" />
        </mxCell>
        <mxCell id="205" value="" style="strokeColor=#99CCFF;" parent="1" vertex="1">
          <mxGeometry x="926.5000000000018" y="380.00000000001114" width="20" height="520" as="geometry" />
        </mxCell>
        <mxCell id="206" value="" style="strokeColor=#99CCFF;" parent="1" vertex="1">
          <mxGeometry x="946.5000000000018" y="380.0000000000148" width="20" height="520" as="geometry" />
        </mxCell>
        <mxCell id="207" value="" style="strokeColor=#99CCFF;" parent="1" vertex="1">
          <mxGeometry x="966.5000000000018" y="380.0000000000148" width="20" height="520" as="geometry" />
        </mxCell>
        <mxCell id="208" value="" style="strokeColor=#99CCFF;" parent="1" vertex="1">
          <mxGeometry x="986.5000000000018" y="380.0000000000148" width="20" height="520" as="geometry" />
        </mxCell>
        <mxCell id="209" value="" style="strokeColor=#99CCFF;" parent="1" vertex="1">
          <mxGeometry x="1006.5000000000018" y="380.0000000000002" width="20" height="520" as="geometry" />
        </mxCell>
        <mxCell id="210" value="" style="strokeColor=#99CCFF;" parent="1" vertex="1">
          <mxGeometry x="1026.5000000000018" y="380.00000000000387" width="20" height="520" as="geometry" />
        </mxCell>
        <mxCell id="211" value="" style="strokeColor=#99CCFF;" parent="1" vertex="1">
          <mxGeometry x="1046.5000000000018" y="380.00000000000387" width="20" height="520" as="geometry" />
        </mxCell>
        <mxCell id="212" value="" style="strokeColor=#99CCFF;" parent="1" vertex="1">
          <mxGeometry x="1066.5000000000018" y="380.00000000000387" width="20" height="520" as="geometry" />
        </mxCell>
        <mxCell id="213" value="" style="strokeColor=#99CCFF;" parent="1" vertex="1">
          <mxGeometry x="1086.5000000000018" y="380.0000000000148" width="20" height="520" as="geometry" />
        </mxCell>
        <mxCell id="214" value="" style="strokeColor=#99CCFF;" parent="1" vertex="1">
          <mxGeometry x="1106.5000000000018" y="380.0000000000184" width="20" height="520" as="geometry" />
        </mxCell>
        <mxCell id="215" value="" style="strokeColor=#99CCFF;" parent="1" vertex="1">
          <mxGeometry x="1126.5000000000018" y="380.0000000000184" width="20" height="520" as="geometry" />
        </mxCell>
        <mxCell id="216" value="" style="strokeColor=#99CCFF;" parent="1" vertex="1">
          <mxGeometry x="1146.5000000000018" y="380.0000000000184" width="20" height="520" as="geometry" />
        </mxCell>
        <mxCell id="217" value="" style="strokeColor=#99CCFF;" parent="1" vertex="1">
          <mxGeometry x="1166.500000000002" y="380.0000000000184" width="20" height="520" as="geometry" />
        </mxCell>
        <mxCell id="218" value="" style="strokeColor=#99CCFF;" parent="1" vertex="1">
          <mxGeometry x="1186.500000000002" y="380.00000000002206" width="20" height="520" as="geometry" />
        </mxCell>
        <mxCell id="219" value="" style="strokeColor=#99CCFF;" parent="1" vertex="1">
          <mxGeometry x="1206.500000000002" y="380.00000000002206" width="20" height="520" as="geometry" />
        </mxCell>
        <mxCell id="220" value="" style="strokeColor=#99CCFF;" parent="1" vertex="1">
          <mxGeometry x="1226.500000000002" y="380.00000000002206" width="20" height="520" as="geometry" />
        </mxCell>
        <mxCell id="221" value="" style="strokeColor=#99CCFF;" parent="1" vertex="1">
          <mxGeometry x="1246.500000000002" y="380.00000000002206" width="20" height="520" as="geometry" />
        </mxCell>
        <mxCell id="222" value="" style="strokeColor=#99CCFF;" parent="1" vertex="1">
          <mxGeometry x="1266.500000000002" y="380.0000000000257" width="20" height="520" as="geometry" />
        </mxCell>
        <mxCell id="223" value="" style="strokeColor=#99CCFF;" parent="1" vertex="1">
          <mxGeometry x="1286.500000000002" y="380.0000000000257" width="20" height="520" as="geometry" />
        </mxCell>
        <mxCell id="224" value="" style="strokeColor=#99CCFF;" parent="1" vertex="1">
          <mxGeometry x="1306.500000000002" y="380.0000000000257" width="20" height="520" as="geometry" />
        </mxCell>
        <mxCell id="225" value="" style="strokeColor=#99CCFF;" parent="1" vertex="1">
          <mxGeometry x="1326.5000000000016" y="380.0000000000257" width="20" height="520" as="geometry" />
        </mxCell>
        <mxCell id="226" value="" style="strokeColor=#99CCFF;" parent="1" vertex="1">
          <mxGeometry x="1346.5000000000016" y="380.00000000002933" width="20" height="520" as="geometry" />
        </mxCell>
        <mxCell id="227" value="" style="strokeColor=#99CCFF;" parent="1" vertex="1">
          <mxGeometry x="1366.5000000000016" y="380.00000000002933" width="20" height="520" as="geometry" />
        </mxCell>
        <mxCell id="228" value="" style="strokeColor=#99CCFF;" parent="1" vertex="1">
          <mxGeometry x="1386.5000000000016" y="380.00000000002933" width="20" height="520" as="geometry" />
        </mxCell>
        <mxCell id="229" value="" style="strokeColor=#99CCFF;" parent="1" vertex="1">
          <mxGeometry x="1406.5000000000016" y="380.00000000002933" width="20" height="520" as="geometry" />
        </mxCell>
        <mxCell id="230" value="" style="strokeColor=#99CCFF;" parent="1" vertex="1">
          <mxGeometry x="1426.5000000000016" y="380.00000000003297" width="20" height="520" as="geometry" />
        </mxCell>
        <mxCell id="231" value="" style="strokeColor=#99CCFF;" parent="1" vertex="1">
          <mxGeometry x="1446.5000000000016" y="380.00000000003297" width="20" height="520" as="geometry" />
        </mxCell>
        <mxCell id="232" value="" style="strokeColor=#99CCFF;" parent="1" vertex="1">
          <mxGeometry x="1466.5000000000016" y="380.00000000003297" width="20" height="520" as="geometry" />
        </mxCell>
        <mxCell id="233" value="" style="strokeColor=#99CCFF;" parent="1" vertex="1">
          <mxGeometry x="1486.5000000000016" y="380.0000000000184" width="20" height="520" as="geometry" />
        </mxCell>
        <mxCell id="234" value="" style="strokeColor=#99CCFF;" parent="1" vertex="1">
          <mxGeometry x="1506.5000000000016" y="380.00000000002206" width="20" height="520" as="geometry" />
        </mxCell>
        <mxCell id="235" value="" style="strokeColor=#99CCFF;" parent="1" vertex="1">
          <mxGeometry x="1526.5000000000016" y="380.00000000002206" width="20" height="520" as="geometry" />
        </mxCell>
        <mxCell id="236" value="" style="strokeColor=#99CCFF;" parent="1" vertex="1">
          <mxGeometry x="1546.5000000000016" y="380.00000000002206" width="20" height="520" as="geometry" />
        </mxCell>
        <mxCell id="237" value="" style="strokeColor=#99CCFF;" parent="1" vertex="1">
          <mxGeometry x="1566.5000000000016" y="380.00000000003297" width="20" height="520" as="geometry" />
        </mxCell>
        <mxCell id="238" value="" style="strokeColor=#99CCFF;" parent="1" vertex="1">
          <mxGeometry x="1586.5000000000016" y="380.0000000000366" width="20" height="520" as="geometry" />
        </mxCell>
        <mxCell id="239" value="" style="strokeColor=#99CCFF;" parent="1" vertex="1">
          <mxGeometry x="1606.5000000000016" y="380.0000000000366" width="20" height="520" as="geometry" />
        </mxCell>
        <mxCell id="240" value="" style="strokeColor=#99CCFF;" parent="1" vertex="1">
          <mxGeometry x="1626.5000000000016" y="380.0000000000366" width="20" height="520" as="geometry" />
        </mxCell>
        <mxCell id="241" value="" style="strokeColor=#99CCFF;" parent="1" vertex="1">
          <mxGeometry x="1646.5000000000018" y="380.0000000000366" width="20" height="520" as="geometry" />
        </mxCell>
        <mxCell id="2" value="Task Name" style="fillColor=#23445D;strokeColor=#FFFFFF;strokeWidth=2;fontColor=#FFFFFF;fontStyle=1" parent="1" vertex="1">
          <mxGeometry x="540" y="358" width="147.5" height="40" as="geometry" />
        </mxCell>
        <mxCell id="4" value="2024" style="fillColor=#23445D;strokeColor=#FFFFFF;strokeWidth=2;fontColor=#FFFFFF;fontStyle=1" parent="1" vertex="1">
          <mxGeometry x="720" y="358" width="180" height="20" as="geometry" />
        </mxCell>
        <mxCell id="5" value="1" style="fillColor=#23445D;strokeColor=#FFFFFF;strokeWidth=2;fontColor=#FFFFFF;fontStyle=1" parent="1" vertex="1">
          <mxGeometry x="686.5000000000018" y="378.0000000000001" width="20" height="20" as="geometry" />
        </mxCell>
        <mxCell id="6" value="2" style="fillColor=#23445D;strokeColor=#FFFFFF;strokeWidth=2;fontColor=#FFFFFF;fontStyle=1" parent="1" vertex="1">
          <mxGeometry x="706.5000000000018" y="378.0000000000001" width="20" height="20" as="geometry" />
        </mxCell>
        <mxCell id="7" value="3" style="fillColor=#23445D;strokeColor=#FFFFFF;strokeWidth=2;fontColor=#FFFFFF;fontStyle=1" parent="1" vertex="1">
          <mxGeometry x="726.5000000000018" y="378.0000000000001" width="20" height="20" as="geometry" />
        </mxCell>
        <mxCell id="8" value="4" style="fillColor=#23445D;strokeColor=#FFFFFF;strokeWidth=2;fontColor=#FFFFFF;fontStyle=1" parent="1" vertex="1">
          <mxGeometry x="746.5000000000018" y="378.0000000000001" width="20" height="20" as="geometry" />
        </mxCell>
        <mxCell id="9" value="5" style="fillColor=#23445D;strokeColor=#FFFFFF;strokeWidth=2;fontColor=#FFFFFF;fontStyle=1" parent="1" vertex="1">
          <mxGeometry x="766.5000000000016" y="378.0000000000001" width="20" height="20" as="geometry" />
        </mxCell>
        <mxCell id="10" value="6" style="fillColor=#23445D;strokeColor=#FFFFFF;strokeWidth=2;fontColor=#FFFFFF;fontStyle=1" parent="1" vertex="1">
          <mxGeometry x="786.5000000000016" y="378.0000000000001" width="20" height="20" as="geometry" />
        </mxCell>
        <mxCell id="11" value="7" style="fillColor=#23445D;strokeColor=#FFFFFF;strokeWidth=2;fontColor=#FFFFFF;fontStyle=1" parent="1" vertex="1">
          <mxGeometry x="806.5000000000016" y="378.0000000000001" width="20" height="20" as="geometry" />
        </mxCell>
        <mxCell id="16" value="8" style="fillColor=#23445D;strokeColor=#FFFFFF;strokeWidth=2;fontColor=#FFFFFF;fontStyle=1" parent="1" vertex="1">
          <mxGeometry x="826.5000000000018" y="378.0000000000001" width="20" height="20" as="geometry" />
        </mxCell>
        <mxCell id="17" value="9" style="fillColor=#23445D;strokeColor=#FFFFFF;strokeWidth=2;fontColor=#FFFFFF;fontStyle=1" parent="1" vertex="1">
          <mxGeometry x="846.5000000000018" y="378.0000000000001" width="20" height="20" as="geometry" />
        </mxCell>
        <mxCell id="18" value="10" style="fillColor=#23445D;strokeColor=#FFFFFF;strokeWidth=2;fontColor=#FFFFFF;fontStyle=1" parent="1" vertex="1">
          <mxGeometry x="866.5000000000018" y="378.0000000000001" width="20" height="20" as="geometry" />
        </mxCell>
        <mxCell id="19" value="11" style="fillColor=#23445D;strokeColor=#FFFFFF;strokeWidth=2;fontColor=#FFFFFF;fontStyle=1" parent="1" vertex="1">
          <mxGeometry x="886.5000000000018" y="378.0000000000001" width="20" height="20" as="geometry" />
        </mxCell>
        <mxCell id="20" value="12" style="fillColor=#23445D;strokeColor=#FFFFFF;strokeWidth=2;fontColor=#FFFFFF;fontStyle=1" parent="1" vertex="1">
          <mxGeometry x="906.5000000000016" y="378.0000000000001" width="20" height="20" as="geometry" />
        </mxCell>
        <mxCell id="mjpSlSEr6OjCwsv88gNC-279" value="" style="edgeStyle=orthogonalEdgeStyle;rounded=0;orthogonalLoop=1;jettySize=auto;html=1;" edge="1" target="mjpSlSEr6OjCwsv88gNC-280" parent="1">
          <mxGeometry relative="1" as="geometry">
            <mxPoint x="1017.5" y="398" as="sourcePoint" />
          </mxGeometry>
        </mxCell>
        <mxCell id="mjpSlSEr6OjCwsv88gNC-280" value="2025" style="fillColor=#23445D;strokeColor=#FFFFFF;strokeWidth=2;fontColor=#FFFFFF;fontStyle=1" vertex="1" parent="1">
          <mxGeometry x="960.5" y="358" width="180" height="20" as="geometry" />
        </mxCell>
        <mxCell id="mjpSlSEr6OjCwsv88gNC-281" value="1" style="fillColor=#23445D;strokeColor=#FFFFFF;strokeWidth=2;fontColor=#FFFFFF;fontStyle=1" vertex="1" parent="1">
          <mxGeometry x="927.0000000000018" y="378.0000000000001" width="20" height="20" as="geometry" />
        </mxCell>
        <mxCell id="mjpSlSEr6OjCwsv88gNC-282" value="2" style="fillColor=#23445D;strokeColor=#FFFFFF;strokeWidth=2;fontColor=#FFFFFF;fontStyle=1" vertex="1" parent="1">
          <mxGeometry x="947.0000000000018" y="378.0000000000001" width="20" height="20" as="geometry" />
        </mxCell>
        <mxCell id="mjpSlSEr6OjCwsv88gNC-283" value="3" style="fillColor=#23445D;strokeColor=#FFFFFF;strokeWidth=2;fontColor=#FFFFFF;fontStyle=1" vertex="1" parent="1">
          <mxGeometry x="967.0000000000018" y="378.0000000000001" width="20" height="20" as="geometry" />
        </mxCell>
        <mxCell id="mjpSlSEr6OjCwsv88gNC-284" value="4" style="fillColor=#23445D;strokeColor=#FFFFFF;strokeWidth=2;fontColor=#FFFFFF;fontStyle=1" vertex="1" parent="1">
          <mxGeometry x="987.0000000000018" y="378.0000000000001" width="20" height="20" as="geometry" />
        </mxCell>
        <mxCell id="mjpSlSEr6OjCwsv88gNC-285" value="5" style="fillColor=#23445D;strokeColor=#FFFFFF;strokeWidth=2;fontColor=#FFFFFF;fontStyle=1" vertex="1" parent="1">
          <mxGeometry x="1007.0000000000016" y="378.0000000000001" width="20" height="20" as="geometry" />
        </mxCell>
        <mxCell id="mjpSlSEr6OjCwsv88gNC-286" value="6" style="fillColor=#23445D;strokeColor=#FFFFFF;strokeWidth=2;fontColor=#FFFFFF;fontStyle=1" vertex="1" parent="1">
          <mxGeometry x="1027.0000000000016" y="378.0000000000001" width="20" height="20" as="geometry" />
        </mxCell>
        <mxCell id="mjpSlSEr6OjCwsv88gNC-287" value="7" style="fillColor=#23445D;strokeColor=#FFFFFF;strokeWidth=2;fontColor=#FFFFFF;fontStyle=1" vertex="1" parent="1">
          <mxGeometry x="1047.0000000000016" y="378.0000000000001" width="20" height="20" as="geometry" />
        </mxCell>
        <mxCell id="mjpSlSEr6OjCwsv88gNC-288" value="8" style="fillColor=#23445D;strokeColor=#FFFFFF;strokeWidth=2;fontColor=#FFFFFF;fontStyle=1" vertex="1" parent="1">
          <mxGeometry x="1067.0000000000018" y="378.0000000000001" width="20" height="20" as="geometry" />
        </mxCell>
        <mxCell id="mjpSlSEr6OjCwsv88gNC-289" value="9" style="fillColor=#23445D;strokeColor=#FFFFFF;strokeWidth=2;fontColor=#FFFFFF;fontStyle=1" vertex="1" parent="1">
          <mxGeometry x="1087.0000000000018" y="378.0000000000001" width="20" height="20" as="geometry" />
        </mxCell>
        <mxCell id="mjpSlSEr6OjCwsv88gNC-290" value="10" style="fillColor=#23445D;strokeColor=#FFFFFF;strokeWidth=2;fontColor=#FFFFFF;fontStyle=1" vertex="1" parent="1">
          <mxGeometry x="1107.0000000000018" y="378.0000000000001" width="20" height="20" as="geometry" />
        </mxCell>
        <mxCell id="mjpSlSEr6OjCwsv88gNC-291" value="11" style="fillColor=#23445D;strokeColor=#FFFFFF;strokeWidth=2;fontColor=#FFFFFF;fontStyle=1" vertex="1" parent="1">
          <mxGeometry x="1127.0000000000018" y="378.0000000000001" width="20" height="20" as="geometry" />
        </mxCell>
        <mxCell id="mjpSlSEr6OjCwsv88gNC-292" value="12" style="fillColor=#23445D;strokeColor=#FFFFFF;strokeWidth=2;fontColor=#FFFFFF;fontStyle=1" vertex="1" parent="1">
          <mxGeometry x="1147.0000000000016" y="378.0000000000001" width="20" height="20" as="geometry" />
        </mxCell>
        <mxCell id="mjpSlSEr6OjCwsv88gNC-321" value="" style="edgeStyle=orthogonalEdgeStyle;rounded=0;orthogonalLoop=1;jettySize=auto;html=1;" edge="1" target="mjpSlSEr6OjCwsv88gNC-322" parent="1">
          <mxGeometry relative="1" as="geometry">
            <mxPoint x="1256.5" y="398" as="sourcePoint" />
          </mxGeometry>
        </mxCell>
        <mxCell id="mjpSlSEr6OjCwsv88gNC-322" value="2026" style="fillColor=#23445D;strokeColor=#FFFFFF;strokeWidth=2;fontColor=#FFFFFF;fontStyle=1" vertex="1" parent="1">
          <mxGeometry x="1199.5" y="358" width="180" height="20" as="geometry" />
        </mxCell>
        <mxCell id="mjpSlSEr6OjCwsv88gNC-323" value="1" style="fillColor=#23445D;strokeColor=#FFFFFF;strokeWidth=2;fontColor=#FFFFFF;fontStyle=1" vertex="1" parent="1">
          <mxGeometry x="1166.0000000000018" y="378.0000000000001" width="20" height="20" as="geometry" />
        </mxCell>
        <mxCell id="mjpSlSEr6OjCwsv88gNC-324" value="2" style="fillColor=#23445D;strokeColor=#FFFFFF;strokeWidth=2;fontColor=#FFFFFF;fontStyle=1" vertex="1" parent="1">
          <mxGeometry x="1186.0000000000018" y="378.0000000000001" width="20" height="20" as="geometry" />
        </mxCell>
        <mxCell id="mjpSlSEr6OjCwsv88gNC-325" value="3" style="fillColor=#23445D;strokeColor=#FFFFFF;strokeWidth=2;fontColor=#FFFFFF;fontStyle=1" vertex="1" parent="1">
          <mxGeometry x="1206.0000000000018" y="378.0000000000001" width="20" height="20" as="geometry" />
        </mxCell>
        <mxCell id="mjpSlSEr6OjCwsv88gNC-326" value="4" style="fillColor=#23445D;strokeColor=#FFFFFF;strokeWidth=2;fontColor=#FFFFFF;fontStyle=1" vertex="1" parent="1">
          <mxGeometry x="1226.0000000000018" y="378.0000000000001" width="20" height="20" as="geometry" />
        </mxCell>
        <mxCell id="mjpSlSEr6OjCwsv88gNC-327" value="5" style="fillColor=#23445D;strokeColor=#FFFFFF;strokeWidth=2;fontColor=#FFFFFF;fontStyle=1" vertex="1" parent="1">
          <mxGeometry x="1246.0000000000016" y="378.0000000000001" width="20" height="20" as="geometry" />
        </mxCell>
        <mxCell id="mjpSlSEr6OjCwsv88gNC-328" value="6" style="fillColor=#23445D;strokeColor=#FFFFFF;strokeWidth=2;fontColor=#FFFFFF;fontStyle=1" vertex="1" parent="1">
          <mxGeometry x="1266.0000000000016" y="378.0000000000001" width="20" height="20" as="geometry" />
        </mxCell>
        <mxCell id="mjpSlSEr6OjCwsv88gNC-329" value="7" style="fillColor=#23445D;strokeColor=#FFFFFF;strokeWidth=2;fontColor=#FFFFFF;fontStyle=1" vertex="1" parent="1">
          <mxGeometry x="1286.0000000000016" y="378.0000000000001" width="20" height="20" as="geometry" />
        </mxCell>
        <mxCell id="mjpSlSEr6OjCwsv88gNC-330" value="8" style="fillColor=#23445D;strokeColor=#FFFFFF;strokeWidth=2;fontColor=#FFFFFF;fontStyle=1" vertex="1" parent="1">
          <mxGeometry x="1306.0000000000018" y="378.0000000000001" width="20" height="20" as="geometry" />
        </mxCell>
        <mxCell id="mjpSlSEr6OjCwsv88gNC-331" value="9" style="fillColor=#23445D;strokeColor=#FFFFFF;strokeWidth=2;fontColor=#FFFFFF;fontStyle=1" vertex="1" parent="1">
          <mxGeometry x="1326.0000000000018" y="378.0000000000001" width="20" height="20" as="geometry" />
        </mxCell>
        <mxCell id="mjpSlSEr6OjCwsv88gNC-332" value="10" style="fillColor=#23445D;strokeColor=#FFFFFF;strokeWidth=2;fontColor=#FFFFFF;fontStyle=1" vertex="1" parent="1">
          <mxGeometry x="1346.0000000000018" y="378.0000000000001" width="20" height="20" as="geometry" />
        </mxCell>
        <mxCell id="mjpSlSEr6OjCwsv88gNC-333" value="11" style="fillColor=#23445D;strokeColor=#FFFFFF;strokeWidth=2;fontColor=#FFFFFF;fontStyle=1" vertex="1" parent="1">
          <mxGeometry x="1366.0000000000018" y="378.0000000000001" width="20" height="20" as="geometry" />
        </mxCell>
        <mxCell id="mjpSlSEr6OjCwsv88gNC-334" value="12" style="fillColor=#23445D;strokeColor=#FFFFFF;strokeWidth=2;fontColor=#FFFFFF;fontStyle=1" vertex="1" parent="1">
          <mxGeometry x="1386.0000000000016" y="378.0000000000001" width="20" height="20" as="geometry" />
        </mxCell>
        <mxCell id="mjpSlSEr6OjCwsv88gNC-335" value="" style="edgeStyle=orthogonalEdgeStyle;rounded=0;orthogonalLoop=1;jettySize=auto;html=1;" edge="1" target="mjpSlSEr6OjCwsv88gNC-336" parent="1">
          <mxGeometry relative="1" as="geometry">
            <mxPoint x="1496.5" y="398" as="sourcePoint" />
          </mxGeometry>
        </mxCell>
        <mxCell id="mjpSlSEr6OjCwsv88gNC-336" value="2027" style="fillColor=#23445D;strokeColor=#FFFFFF;strokeWidth=2;fontColor=#FFFFFF;fontStyle=1" vertex="1" parent="1">
          <mxGeometry x="1439.5" y="358" width="180" height="20" as="geometry" />
        </mxCell>
        <mxCell id="mjpSlSEr6OjCwsv88gNC-337" value="1" style="fillColor=#23445D;strokeColor=#FFFFFF;strokeWidth=2;fontColor=#FFFFFF;fontStyle=1" vertex="1" parent="1">
          <mxGeometry x="1406.0000000000018" y="378.0000000000001" width="20" height="20" as="geometry" />
        </mxCell>
        <mxCell id="mjpSlSEr6OjCwsv88gNC-338" value="2" style="fillColor=#23445D;strokeColor=#FFFFFF;strokeWidth=2;fontColor=#FFFFFF;fontStyle=1" vertex="1" parent="1">
          <mxGeometry x="1426.0000000000018" y="378.0000000000001" width="20" height="20" as="geometry" />
        </mxCell>
        <mxCell id="mjpSlSEr6OjCwsv88gNC-339" value="3" style="fillColor=#23445D;strokeColor=#FFFFFF;strokeWidth=2;fontColor=#FFFFFF;fontStyle=1" vertex="1" parent="1">
          <mxGeometry x="1446.0000000000018" y="378.0000000000001" width="20" height="20" as="geometry" />
        </mxCell>
        <mxCell id="mjpSlSEr6OjCwsv88gNC-340" value="4" style="fillColor=#23445D;strokeColor=#FFFFFF;strokeWidth=2;fontColor=#FFFFFF;fontStyle=1" vertex="1" parent="1">
          <mxGeometry x="1466.0000000000018" y="378.0000000000001" width="20" height="20" as="geometry" />
        </mxCell>
        <mxCell id="mjpSlSEr6OjCwsv88gNC-341" value="5" style="fillColor=#23445D;strokeColor=#FFFFFF;strokeWidth=2;fontColor=#FFFFFF;fontStyle=1" vertex="1" parent="1">
          <mxGeometry x="1486.0000000000016" y="378.0000000000001" width="20" height="20" as="geometry" />
        </mxCell>
        <mxCell id="mjpSlSEr6OjCwsv88gNC-342" value="6" style="fillColor=#23445D;strokeColor=#FFFFFF;strokeWidth=2;fontColor=#FFFFFF;fontStyle=1" vertex="1" parent="1">
          <mxGeometry x="1506.0000000000016" y="378.0000000000001" width="20" height="20" as="geometry" />
        </mxCell>
        <mxCell id="mjpSlSEr6OjCwsv88gNC-343" value="7" style="fillColor=#23445D;strokeColor=#FFFFFF;strokeWidth=2;fontColor=#FFFFFF;fontStyle=1" vertex="1" parent="1">
          <mxGeometry x="1526.0000000000016" y="378.0000000000001" width="20" height="20" as="geometry" />
        </mxCell>
        <mxCell id="mjpSlSEr6OjCwsv88gNC-344" value="8" style="fillColor=#23445D;strokeColor=#FFFFFF;strokeWidth=2;fontColor=#FFFFFF;fontStyle=1" vertex="1" parent="1">
          <mxGeometry x="1546.0000000000018" y="378.0000000000001" width="20" height="20" as="geometry" />
        </mxCell>
        <mxCell id="mjpSlSEr6OjCwsv88gNC-345" value="9" style="fillColor=#23445D;strokeColor=#FFFFFF;strokeWidth=2;fontColor=#FFFFFF;fontStyle=1" vertex="1" parent="1">
          <mxGeometry x="1566.0000000000018" y="378.0000000000001" width="20" height="20" as="geometry" />
        </mxCell>
        <mxCell id="mjpSlSEr6OjCwsv88gNC-346" value="10" style="fillColor=#23445D;strokeColor=#FFFFFF;strokeWidth=2;fontColor=#FFFFFF;fontStyle=1" vertex="1" parent="1">
          <mxGeometry x="1586.0000000000018" y="378.0000000000001" width="20" height="20" as="geometry" />
        </mxCell>
        <mxCell id="mjpSlSEr6OjCwsv88gNC-347" value="11" style="fillColor=#23445D;strokeColor=#FFFFFF;strokeWidth=2;fontColor=#FFFFFF;fontStyle=1" vertex="1" parent="1">
          <mxGeometry x="1606.0000000000018" y="378.0000000000001" width="20" height="20" as="geometry" />
        </mxCell>
        <mxCell id="mjpSlSEr6OjCwsv88gNC-348" value="12" style="fillColor=#23445D;strokeColor=#FFFFFF;strokeWidth=2;fontColor=#FFFFFF;fontStyle=1" vertex="1" parent="1">
          <mxGeometry x="1626.0000000000016" y="378.0000000000001" width="20" height="20" as="geometry" />
        </mxCell>
        <mxCell id="mjpSlSEr6OjCwsv88gNC-350" value="" style="shape=mxgraph.flowchart.process;fillColor=#cdeb8b;strokeColor=#36393d;strokeWidth=2;opacity=50" vertex="1" parent="1">
          <mxGeometry x="686.5" y="610" width="243.5" height="11" as="geometry" />
        </mxCell>
        <mxCell id="mjpSlSEr6OjCwsv88gNC-351" value="" style="shape=mxgraph.flowchart.process;fillColor=#ffff88;strokeColor=#36393d;strokeWidth=2;opacity=50" vertex="1" parent="1">
          <mxGeometry x="686.5" y="620" width="953.5" height="10" as="geometry" />
        </mxCell>
        <mxCell id="mjpSlSEr6OjCwsv88gNC-354" value="" style="shape=mxgraph.flowchart.process;fillColor=#cdeb8b;strokeColor=#36393d;strokeWidth=2;opacity=50" vertex="1" parent="1">
          <mxGeometry x="686.5" y="430" width="953.5" height="11" as="geometry" />
        </mxCell>
        <mxCell id="mjpSlSEr6OjCwsv88gNC-355" value="" style="shape=mxgraph.flowchart.process;fillColor=#ffff88;strokeColor=#36393d;strokeWidth=2;opacity=50" vertex="1" parent="1">
          <mxGeometry x="720" y="440" width="920" height="10" as="geometry" />
        </mxCell>
        <mxCell id="mjpSlSEr6OjCwsv88gNC-356" value="" style="shape=mxgraph.flowchart.process;fillColor=#cdeb8b;strokeColor=#36393d;strokeWidth=2;opacity=50" vertex="1" parent="1">
          <mxGeometry x="686.5" y="490" width="953.5" height="11" as="geometry" />
        </mxCell>
        <mxCell id="mjpSlSEr6OjCwsv88gNC-357" value="" style="shape=mxgraph.flowchart.process;fillColor=#ffff88;strokeColor=#36393d;strokeWidth=2;opacity=50" vertex="1" parent="1">
          <mxGeometry x="686.5" y="500" width="953.5" height="10" as="geometry" />
        </mxCell>
        <mxCell id="mjpSlSEr6OjCwsv88gNC-361" value="" style="strokeColor=#6c8ebf;fillColor=#dae8fc;" vertex="1" parent="1">
          <mxGeometry x="500.00000000000034" y="641.000000000001" width="40" height="20" as="geometry" />
        </mxCell>
        <mxCell id="mjpSlSEr6OjCwsv88gNC-362" value="GTM" style="align=center;strokeColor=#6c8ebf;fillColor=#dae8fc;" vertex="1" parent="1">
          <mxGeometry x="540" y="641" width="147.5" height="20" as="geometry" />
        </mxCell>
        <mxCell id="mjpSlSEr6OjCwsv88gNC-366" value="" style="strokeColor=#DEEDFF" vertex="1" parent="1">
          <mxGeometry x="500.0000000000003" y="661.000000000001" width="40" height="20" as="geometry" />
        </mxCell>
        <mxCell id="mjpSlSEr6OjCwsv88gNC-367" value="Evolução" style="align=right;strokeColor=#DEEDFF" vertex="1" parent="1">
          <mxGeometry x="367.5000000000003" y="661.000000000001" width="319.9999999999997" height="20" as="geometry" />
        </mxCell>
        <mxCell id="mjpSlSEr6OjCwsv88gNC-371" value="" style="strokeColor=#DEEDFF" vertex="1" parent="1">
          <mxGeometry x="500.0000000000003" y="681.0000000000013" width="40" height="20" as="geometry" />
        </mxCell>
        <mxCell id="mjpSlSEr6OjCwsv88gNC-372" value="Sustentação" style="align=right;strokeColor=#DEEDFF" vertex="1" parent="1">
          <mxGeometry x="367.5000000000003" y="681.0000000000013" width="319.9999999999997" height="20" as="geometry" />
        </mxCell>
        <mxCell id="mjpSlSEr6OjCwsv88gNC-382" value="" style="shape=mxgraph.flowchart.process;fillColor=#cdeb8b;strokeColor=#36393d;strokeWidth=2;opacity=50" vertex="1" parent="1">
          <mxGeometry x="686.5" y="670" width="483.5" height="11" as="geometry" />
        </mxCell>
        <mxCell id="mjpSlSEr6OjCwsv88gNC-383" value="" style="shape=mxgraph.flowchart.process;fillColor=#ffff88;strokeColor=#36393d;strokeWidth=2;opacity=50" vertex="1" parent="1">
          <mxGeometry x="686.5" y="680" width="953.5" height="10" as="geometry" />
        </mxCell>
        <mxCell id="mjpSlSEr6OjCwsv88gNC-385" value="" style="strokeColor=#6c8ebf;fillColor=#dae8fc;" vertex="1" parent="1">
          <mxGeometry x="499.9999999999999" y="520.0000000000002" width="40" height="20" as="geometry" />
        </mxCell>
        <mxCell id="mjpSlSEr6OjCwsv88gNC-386" value="Rota Certa" style="align=center;strokeColor=#6c8ebf;fillColor=#dae8fc;" vertex="1" parent="1">
          <mxGeometry x="540" y="520" width="147.5" height="20" as="geometry" />
        </mxCell>
        <mxCell id="mjpSlSEr6OjCwsv88gNC-390" value="" style="strokeColor=#DEEDFF" vertex="1" parent="1">
          <mxGeometry x="499.9999999999999" y="540.0000000000005" width="40" height="20" as="geometry" />
        </mxCell>
        <mxCell id="mjpSlSEr6OjCwsv88gNC-391" value="Evolução" style="align=right;strokeColor=#DEEDFF" vertex="1" parent="1">
          <mxGeometry x="367.4999999999999" y="540.0000000000005" width="320.0000000000001" height="20" as="geometry" />
        </mxCell>
        <mxCell id="mjpSlSEr6OjCwsv88gNC-395" value="" style="strokeColor=#DEEDFF" vertex="1" parent="1">
          <mxGeometry x="500.0000000000006" y="560.0000000000007" width="40" height="20" as="geometry" />
        </mxCell>
        <mxCell id="mjpSlSEr6OjCwsv88gNC-396" value="Sustentação" style="align=right;strokeColor=#DEEDFF" vertex="1" parent="1">
          <mxGeometry x="367.5000000000006" y="560.0000000000007" width="319.9999999999994" height="20" as="geometry" />
        </mxCell>
        <mxCell id="mjpSlSEr6OjCwsv88gNC-400" value="" style="shape=mxgraph.flowchart.process;fillColor=#cdeb8b;strokeColor=#36393d;strokeWidth=2;opacity=50" vertex="1" parent="1">
          <mxGeometry x="686.5" y="550" width="953.5" height="11" as="geometry" />
        </mxCell>
        <mxCell id="mjpSlSEr6OjCwsv88gNC-401" value="" style="shape=mxgraph.flowchart.process;fillColor=#ffff88;strokeColor=#36393d;strokeWidth=2;opacity=50" vertex="1" parent="1">
          <mxGeometry x="686.5" y="560" width="953.5" height="10" as="geometry" />
        </mxCell>
        <mxCell id="mjpSlSEr6OjCwsv88gNC-405" value="" style="strokeColor=#6c8ebf;fillColor=#dae8fc;" vertex="1" parent="1">
          <mxGeometry x="500.00000000000034" y="701.000000000001" width="40" height="20" as="geometry" />
        </mxCell>
        <mxCell id="mjpSlSEr6OjCwsv88gNC-406" value="SAAGRA" style="align=center;strokeColor=#6c8ebf;fillColor=#dae8fc;" vertex="1" parent="1">
          <mxGeometry x="540" y="701" width="147.5" height="20" as="geometry" />
        </mxCell>
        <mxCell id="mjpSlSEr6OjCwsv88gNC-410" value="" style="strokeColor=#DEEDFF" vertex="1" parent="1">
          <mxGeometry x="500.0000000000003" y="721.000000000001" width="40" height="20" as="geometry" />
        </mxCell>
        <mxCell id="mjpSlSEr6OjCwsv88gNC-411" value="Evolução" style="align=right;strokeColor=#DEEDFF" vertex="1" parent="1">
          <mxGeometry x="367.5000000000003" y="721.000000000001" width="319.9999999999997" height="20" as="geometry" />
        </mxCell>
        <mxCell id="mjpSlSEr6OjCwsv88gNC-415" value="" style="strokeColor=#DEEDFF" vertex="1" parent="1">
          <mxGeometry x="500.0000000000003" y="741.0000000000013" width="40" height="20" as="geometry" />
        </mxCell>
        <mxCell id="mjpSlSEr6OjCwsv88gNC-416" value="Sustentação" style="align=right;strokeColor=#DEEDFF" vertex="1" parent="1">
          <mxGeometry x="367.5000000000003" y="741.0000000000013" width="319.9999999999997" height="20" as="geometry" />
        </mxCell>
        <mxCell id="mjpSlSEr6OjCwsv88gNC-420" value="" style="shape=mxgraph.flowchart.process;fillColor=#cdeb8b;strokeColor=#36393d;strokeWidth=2;opacity=50" vertex="1" parent="1">
          <mxGeometry x="686.5" y="730" width="723.5" height="11" as="geometry" />
        </mxCell>
        <mxCell id="mjpSlSEr6OjCwsv88gNC-421" value="" style="shape=mxgraph.flowchart.process;fillColor=#ffff88;strokeColor=#36393d;strokeWidth=2;opacity=50" vertex="1" parent="1">
          <mxGeometry x="686.5" y="740" width="953.5" height="10" as="geometry" />
        </mxCell>
        <mxCell id="mjpSlSEr6OjCwsv88gNC-425" value="" style="strokeColor=#6c8ebf;fillColor=#dae8fc;" vertex="1" parent="1">
          <mxGeometry x="500.00000000000034" y="761.000000000001" width="40" height="20" as="geometry" />
        </mxCell>
        <mxCell id="mjpSlSEr6OjCwsv88gNC-426" value="ESTOQUE" style="align=center;strokeColor=#6c8ebf;fillColor=#dae8fc;" vertex="1" parent="1">
          <mxGeometry x="540" y="761" width="147.5" height="20" as="geometry" />
        </mxCell>
        <mxCell id="mjpSlSEr6OjCwsv88gNC-430" value="" style="strokeColor=#DEEDFF" vertex="1" parent="1">
          <mxGeometry x="500.0000000000003" y="781.000000000001" width="40" height="20" as="geometry" />
        </mxCell>
        <mxCell id="mjpSlSEr6OjCwsv88gNC-431" value="Evolução" style="align=right;strokeColor=#DEEDFF" vertex="1" parent="1">
          <mxGeometry x="367.5000000000003" y="781.000000000001" width="319.9999999999997" height="20" as="geometry" />
        </mxCell>
        <mxCell id="mjpSlSEr6OjCwsv88gNC-435" value="" style="strokeColor=#DEEDFF" vertex="1" parent="1">
          <mxGeometry x="327.5000000000003" y="801.0000000000013" width="40" height="20" as="geometry" />
        </mxCell>
        <mxCell id="mjpSlSEr6OjCwsv88gNC-436" value="Sustentação" style="align=right;strokeColor=#DEEDFF" vertex="1" parent="1">
          <mxGeometry x="367.5000000000003" y="801.0000000000013" width="319.9999999999997" height="20" as="geometry" />
        </mxCell>
        <mxCell id="mjpSlSEr6OjCwsv88gNC-440" value="" style="shape=mxgraph.flowchart.process;fillColor=#cdeb8b;strokeColor=#36393d;strokeWidth=2;opacity=50" vertex="1" parent="1">
          <mxGeometry x="930" y="790" width="710" height="11" as="geometry" />
        </mxCell>
        <mxCell id="mjpSlSEr6OjCwsv88gNC-441" value="" style="shape=mxgraph.flowchart.process;fillColor=#ffff88;strokeColor=#36393d;strokeWidth=2;opacity=50" vertex="1" parent="1">
          <mxGeometry x="1170" y="800" width="470" height="10" as="geometry" />
        </mxCell>
        <mxCell id="mjpSlSEr6OjCwsv88gNC-449" value="" style="strokeColor=#6c8ebf;fillColor=#dae8fc;" vertex="1" parent="1">
          <mxGeometry x="500.00000000000034" y="820.000000000001" width="40" height="20" as="geometry" />
        </mxCell>
        <mxCell id="mjpSlSEr6OjCwsv88gNC-450" value="GPED" style="align=center;strokeColor=#6c8ebf;fillColor=#dae8fc;" vertex="1" parent="1">
          <mxGeometry x="540" y="820" width="147.5" height="20" as="geometry" />
        </mxCell>
        <mxCell id="mjpSlSEr6OjCwsv88gNC-451" value="" style="strokeColor=#DEEDFF" vertex="1" parent="1">
          <mxGeometry x="500.0000000000003" y="840.000000000001" width="40" height="20" as="geometry" />
        </mxCell>
        <mxCell id="mjpSlSEr6OjCwsv88gNC-452" value="Evolução" style="align=right;strokeColor=#DEEDFF" vertex="1" parent="1">
          <mxGeometry x="367.5000000000003" y="840.000000000001" width="319.9999999999997" height="20" as="geometry" />
        </mxCell>
        <mxCell id="mjpSlSEr6OjCwsv88gNC-453" value="" style="strokeColor=#DEEDFF" vertex="1" parent="1">
          <mxGeometry x="327.5000000000003" y="860.0000000000013" width="40" height="20" as="geometry" />
        </mxCell>
        <mxCell id="mjpSlSEr6OjCwsv88gNC-454" value="Sustentação" style="align=right;strokeColor=#DEEDFF" vertex="1" parent="1">
          <mxGeometry x="367.5000000000003" y="860.0000000000013" width="319.9999999999997" height="20" as="geometry" />
        </mxCell>
        <mxCell id="mjpSlSEr6OjCwsv88gNC-455" value="" style="shape=mxgraph.flowchart.process;fillColor=#cdeb8b;strokeColor=#36393d;strokeWidth=2;opacity=50" vertex="1" parent="1">
          <mxGeometry x="690" y="849" width="950" height="11" as="geometry" />
        </mxCell>
        <mxCell id="mjpSlSEr6OjCwsv88gNC-456" value="" style="shape=mxgraph.flowchart.process;fillColor=#ffff88;strokeColor=#36393d;strokeWidth=2;opacity=50" vertex="1" parent="1">
          <mxGeometry x="690" y="859" width="950" height="10" as="geometry" />
        </mxCell>
      </root>
    </mxGraphModel>
  </diagram>
</mxfile>
